<mxfile host="app.diagrams.net" modified="2024-06-10T14:55:52.539Z" agent="Mozilla/5.0 (Macintosh; Intel Mac OS X 10_15_7) AppleWebKit/537.36 (KHTML, like Gecko) Chrome/125.0.0.0 Safari/537.36" etag="JzqDkoICa2o3_87OXJLv" version="24.5.2" type="github">
  <diagram id="07fea595-8f29-1299-0266-81d95cde20df" name="Page-1">
    <mxGraphModel dx="1434" dy="671" grid="1" gridSize="10" guides="1" tooltips="1" connect="1" arrows="1" fold="1" page="1" pageScale="1" pageWidth="1169" pageHeight="827" background="#ffffff" math="0" shadow="0">
      <root>
        <mxCell id="0" />
        <mxCell id="1" parent="0" />
        <mxCell id="170" value="&lt;font color=&quot;#23497d&quot;&gt;Retailers&lt;/font&gt;" style="swimlane;whiteSpace=wrap;fillColor=none;swimlaneFillColor=#BAC8D3;fontColor=#2F5B7C;fontFamily=Tahoma;html=1;strokeColor=none;opacity=50;" parent="1" vertex="1">
          <mxGeometry x="240" y="88.5" width="160" height="571.5" as="geometry">
            <mxRectangle x="20" y="20" width="80" height="23" as="alternateBounds" />
          </mxGeometry>
        </mxCell>
        <mxCell id="171" value="Inventory Management" style="whiteSpace=wrap;shadow=0;fontColor=#FFFFFF;fontFamily=Helvetica;fontStyle=0;html=1;fontSize=12;plain-purple;strokeColor=none;fillColor=#2f5b7c;gradientColor=none;spacing=6;verticalAlign=middle;" parent="170" vertex="1">
          <mxGeometry x="20" y="60" width="120" height="60" as="geometry" />
        </mxCell>
        <mxCell id="172" value="Surplus Food Identification" style="whiteSpace=wrap;strokeColor=none;fillColor=#2f5b7c;shadow=0;fontColor=#FFFFFF;fontFamily=Helvetica;fontStyle=0;html=1;fontSize=12;spacing=6;verticalAlign=middle;" parent="170" vertex="1">
          <mxGeometry x="20" y="311.5" width="120" height="60" as="geometry" />
        </mxCell>
        <mxCell id="173" value="Listing Surplus Food Items" style="whiteSpace=wrap;strokeColor=none;fillColor=#2f5b7c;shadow=0;fontColor=#FFFFFF;fontFamily=Helvetica;fontStyle=0;html=1;fontSize=12;spacing=6;verticalAlign=middle;" parent="170" vertex="1">
          <mxGeometry x="20" y="485" width="120" height="60" as="geometry" />
        </mxCell>
        <mxCell id="174" value="" style="edgeStyle=segmentEdgeStyle;strokeColor=#2F5B7C;strokeWidth=3;html=1;endArrow=block;endFill=1;" parent="170" source="172" target="173" edge="1">
          <mxGeometry width="100" height="100" relative="1" as="geometry">
            <mxPoint x="170" y="397.5" as="sourcePoint" />
            <mxPoint x="270" y="472.5" as="targetPoint" />
          </mxGeometry>
        </mxCell>
        <mxCell id="175" value="" style="edgeStyle=segmentEdgeStyle;strokeColor=#2F5B7C;strokeWidth=3;html=1;endArrow=block;endFill=1;" parent="170" source="171" target="172" edge="1">
          <mxGeometry width="100" height="100" relative="1" as="geometry">
            <mxPoint x="160" y="110" as="sourcePoint" />
            <mxPoint x="260" y="185" as="targetPoint" />
          </mxGeometry>
        </mxCell>
        <mxCell id="183" value="&lt;font color=&quot;#23497d&quot;&gt;Charitable Organization&lt;/font&gt;" style="swimlane;whiteSpace=wrap;fillColor=none;swimlaneFillColor=#BAC8D3;fontColor=#2F5B7C;fontFamily=Tahoma;html=1;strokeColor=none;opacity=25;" parent="1" vertex="1">
          <mxGeometry x="400" y="88.5" width="160" height="571.5" as="geometry">
            <mxRectangle x="20" y="20" width="80" height="23" as="alternateBounds" />
          </mxGeometry>
        </mxCell>
        <mxCell id="184" value="Claim Food" style="whiteSpace=wrap;shadow=0;fontColor=#ffffff;fontFamily=Helvetica;fontStyle=0;html=1;fontSize=12;strokeColor=#2D7600;fillColor=#60a917;spacing=6;verticalAlign=middle;" parent="183" vertex="1">
          <mxGeometry x="20" y="311.5" width="120" height="60" as="geometry" />
        </mxCell>
        <mxCell id="NRNBsogZVqijylk5KPNs-217" value="Update Inventory" style="whiteSpace=wrap;shadow=0;fontColor=#ffffff;fontFamily=Helvetica;fontStyle=0;html=1;fontSize=12;strokeColor=#2D7600;fillColor=#60a917;spacing=6;verticalAlign=middle;" vertex="1" parent="183">
          <mxGeometry x="20" y="60" width="120" height="60" as="geometry" />
        </mxCell>
        <mxCell id="NRNBsogZVqijylk5KPNs-218" value="" style="edgeStyle=segmentEdgeStyle;strokeColor=#2D7600;strokeWidth=3;html=1;endArrow=none;endFill=0;exitX=0.5;exitY=1;exitDx=0;exitDy=0;fillColor=#60a917;startArrow=blockThin;startFill=1;entryX=0.5;entryY=0;entryDx=0;entryDy=0;" edge="1" parent="183" source="NRNBsogZVqijylk5KPNs-217" target="184">
          <mxGeometry width="100" height="100" as="geometry">
            <mxPoint x="90" y="381.5" as="sourcePoint" />
            <mxPoint x="140" y="262.5" as="targetPoint" />
          </mxGeometry>
        </mxCell>
        <mxCell id="187" value="&lt;font color=&quot;#23497d&quot;&gt;Consumers&lt;/font&gt;" style="swimlane;whiteSpace=wrap;fillColor=none;swimlaneFillColor=#BAC8D3;fontColor=#2F5B7C;fontFamily=Tahoma;html=1;strokeColor=none;opacity=50;" parent="1" vertex="1">
          <mxGeometry x="560" y="88.5" width="160" height="571.5" as="geometry">
            <mxRectangle x="20" y="20" width="80" height="23" as="alternateBounds" />
          </mxGeometry>
        </mxCell>
        <mxCell id="NRNBsogZVqijylk5KPNs-220" value="Update Inventory" style="whiteSpace=wrap;shadow=0;fontFamily=Helvetica;fontStyle=0;html=1;fontSize=12;strokeColor=#006EAF;fillColor=#1ba1e2;spacing=6;verticalAlign=middle;fontColor=#ffffff;" vertex="1" parent="187">
          <mxGeometry x="20" y="60" width="120" height="60" as="geometry" />
        </mxCell>
        <mxCell id="NRNBsogZVqijylk5KPNs-221" value="Purchase" style="whiteSpace=wrap;shadow=0;fontFamily=Helvetica;fontStyle=0;html=1;fontSize=12;strokeColor=#006EAF;fillColor=#1ba1e2;spacing=6;verticalAlign=middle;fontColor=#ffffff;" vertex="1" parent="187">
          <mxGeometry x="20" y="311.5" width="120" height="60" as="geometry" />
        </mxCell>
        <mxCell id="NRNBsogZVqijylk5KPNs-222" value="" style="edgeStyle=segmentEdgeStyle;strokeColor=#006EAF;strokeWidth=3;html=1;endArrow=block;endFill=1;fillColor=#1ba1e2;exitX=0.5;exitY=0;exitDx=0;exitDy=0;entryX=0.5;entryY=1;entryDx=0;entryDy=0;" edge="1" parent="187" source="NRNBsogZVqijylk5KPNs-221" target="NRNBsogZVqijylk5KPNs-220">
          <mxGeometry x="-560" y="-88.5" width="100" height="100" as="geometry">
            <mxPoint x="-170" y="525.5" as="sourcePoint" />
            <mxPoint x="95" y="381.5" as="targetPoint" />
          </mxGeometry>
        </mxCell>
        <mxCell id="207" value="" style="edgeStyle=segmentEdgeStyle;strokeColor=#2D7600;strokeWidth=3;html=1;endArrow=none;endFill=0;entryX=1;entryY=0.5;entryDx=0;entryDy=0;exitX=0.5;exitY=1;exitDx=0;exitDy=0;fillColor=#60a917;startArrow=blockThin;startFill=1;" parent="1" source="184" target="173" edge="1">
          <mxGeometry x="324.5" y="283.5" width="100" height="100" as="geometry">
            <mxPoint x="670" y="298.5" as="sourcePoint" />
            <mxPoint x="770" y="198.5" as="targetPoint" />
            <Array as="points">
              <mxPoint x="480" y="604" />
            </Array>
          </mxGeometry>
        </mxCell>
        <mxCell id="210" value="" style="edgeStyle=segmentEdgeStyle;strokeColor=#006EAF;strokeWidth=3;html=1;endArrow=block;endFill=1;fillColor=#1ba1e2;exitX=1;exitY=0.5;exitDx=0;exitDy=0;entryX=0.5;entryY=1;entryDx=0;entryDy=0;" parent="1" source="173" target="NRNBsogZVqijylk5KPNs-221" edge="1">
          <mxGeometry width="100" height="100" as="geometry">
            <mxPoint x="770" y="580" as="sourcePoint" />
            <mxPoint x="890" y="625" as="targetPoint" />
          </mxGeometry>
        </mxCell>
        <mxCell id="NRNBsogZVqijylk5KPNs-219" value="" style="edgeStyle=segmentEdgeStyle;strokeColor=#2D7600;strokeWidth=3;html=1;endArrow=none;endFill=0;exitX=1;exitY=0.5;exitDx=0;exitDy=0;fillColor=#60a917;startArrow=blockThin;startFill=1;" edge="1" parent="1" source="171">
          <mxGeometry width="100" height="100" as="geometry">
            <mxPoint x="490" y="218.5" as="sourcePoint" />
            <mxPoint x="420" y="179" as="targetPoint" />
          </mxGeometry>
        </mxCell>
        <mxCell id="NRNBsogZVqijylk5KPNs-223" value="" style="edgeStyle=segmentEdgeStyle;strokeColor=#006EAF;strokeWidth=3;html=1;endArrow=block;endFill=1;fillColor=#1ba1e2;exitX=0.5;exitY=0;exitDx=0;exitDy=0;entryX=0.5;entryY=0;entryDx=0;entryDy=0;" edge="1" parent="1" source="NRNBsogZVqijylk5KPNs-220" target="171">
          <mxGeometry x="-560" y="-88.5" width="100" height="100" as="geometry">
            <mxPoint x="650" y="410.5" as="sourcePoint" />
            <mxPoint x="650" y="218.5" as="targetPoint" />
            <Array as="points">
              <mxPoint x="640" y="130" />
              <mxPoint x="320" y="130" />
            </Array>
          </mxGeometry>
        </mxCell>
      </root>
    </mxGraphModel>
  </diagram>
</mxfile>
